<svg width="104" height="32" viewBox="0 0 104 32" fill="none" xmlns="http://www.w3.org/2000/svg">
    <path d="M18.995 7.82979C18.1433 6.8766 17.1347 6.12766 15.9693 5.58298C14.8038 5.0383 13.6271 4.76596 12.4392 4.76596C10.8927 4.76596 9.46949 5.14043 8.16953 5.88936C6.89199 6.6383 5.88341 7.67092 5.14378 8.98723C4.40415 10.2809 4.03434 11.7106 4.03434 13.2766C4.03434 14.8199 4.40415 16.2496 5.14378 17.566C5.90582 18.8596 6.92561 19.8922 8.20315 20.6638C9.48069 21.4128 10.8927 21.7872 12.4392 21.7872C13.6047 21.7872 14.7589 21.5376 15.902 21.0383C17.0675 20.5163 18.0985 19.8128 18.995 18.9277L21.3484 21.583C20.1381 22.8085 18.726 23.7844 17.1123 24.5106C15.4986 25.2142 13.8736 25.566 12.2375 25.566C9.97378 25.566 7.90058 25.0213 6.01789 23.9319C4.15761 22.8426 2.68956 21.3674 1.61373 19.5064C0.537912 17.6454 0 15.5801 0 13.3106C0 11.0638 0.537912 9.00993 1.61373 7.14894C2.71197 5.28794 4.20243 3.82411 6.08512 2.75745C7.99023 1.69078 10.0858 1.15745 12.372 1.15745C14.0305 1.15745 15.6443 1.49787 17.2132 2.17872C18.8045 2.83688 20.1717 3.74468 21.3147 4.90213L18.995 7.82979Z" fill="#05060F"/>
    <path d="M41.4617 7.14894V25.2596H37.6291V22.1957C36.9567 23.2397 36.0938 24.0454 35.0404 24.6128C33.987 25.1574 32.7655 25.4298 31.3759 25.4298C29.6725 25.4298 28.1708 25.044 26.8709 24.2723C25.5934 23.478 24.596 22.3773 23.8788 20.9702C23.1615 19.5631 22.8029 17.9518 22.8029 16.1362C22.8029 14.3433 23.1615 12.7546 23.8788 11.3702C24.596 9.98582 25.6046 8.9078 26.9045 8.13617C28.2045 7.36454 29.6949 6.97872 31.3759 6.97872C32.7879 6.97872 34.0206 7.26241 35.074 7.82979C36.1275 8.37447 36.9791 9.16879 37.6291 10.2128V7.14894H41.4617ZM32.1828 22.1617C33.6844 22.1617 34.9284 21.6851 35.9145 20.7319C36.9007 19.756 37.4722 18.4851 37.6291 16.9191V15.5915C37.4722 14.0028 36.9007 12.7319 35.9145 11.7787C34.9284 10.8028 33.6844 10.3149 32.1828 10.3149C30.569 10.3149 29.2467 10.8709 28.2157 11.983C27.2071 13.095 26.6916 14.5248 26.6692 16.2723C26.6916 17.9972 27.2071 19.4156 28.2157 20.5277C29.2467 21.617 30.569 22.1617 32.1828 22.1617Z" fill="#05060F"/>
    <path d="M55.4409 7.01277C57.1218 7.01277 58.6011 7.39858 59.8786 8.17021C61.1786 8.94184 62.1872 10.0312 62.9044 11.4383C63.6216 12.8454 63.9802 14.4567 63.9802 16.2723C63.9802 18.0652 63.6216 19.6539 62.9044 21.0383C62.2096 22.4227 61.2234 23.5007 59.9459 24.2723C58.6683 25.0213 57.1891 25.3957 55.5081 25.3957C54.0961 25.3957 52.8522 25.1234 51.7764 24.5787C50.7005 24.0113 49.8376 23.1943 49.1877 22.1277V25.2596H45.3214V0H49.1877V10.2809C49.8376 9.21418 50.6893 8.40851 51.7427 7.86383C52.8186 7.29645 54.0513 7.01277 55.4409 7.01277ZM54.634 22.0596C55.6874 22.0596 56.6288 21.8099 57.458 21.3106C58.2873 20.8113 58.9261 20.1078 59.3744 19.2C59.845 18.2922 60.0804 17.2709 60.0804 16.1362C60.0804 15.0241 59.845 14.0255 59.3744 13.1404C58.9261 12.2553 58.2873 11.5631 57.458 11.0638C56.6288 10.5418 55.6874 10.2809 54.634 10.2809C53.5806 10.2809 52.6393 10.5305 51.81 11.0298C50.9807 11.5291 50.3307 12.2326 49.86 13.1404C49.4118 14.0255 49.1877 15.0241 49.1877 16.1362C49.1877 17.8837 49.6919 19.3135 50.7005 20.4255C51.7315 21.5149 53.0427 22.0596 54.634 22.0596Z" fill="#05060F"/>
    <path d="M76.2744 7.01277C77.9554 7.01277 79.4347 7.39858 80.7122 8.17021C82.0122 8.94184 83.0207 10.0312 83.738 11.4383C84.4552 12.8454 84.8138 14.4567 84.8138 16.2723C84.8138 18.0652 84.4552 19.6539 83.738 21.0383C83.0432 22.4227 82.057 23.5007 80.7795 24.2723C79.5019 25.0213 78.0227 25.3957 76.3417 25.3957C74.9297 25.3957 73.6857 25.1234 72.6099 24.5787C71.5341 24.0113 70.6712 23.1943 70.0212 22.1277V25.2596H66.155V0H70.0212V10.2809C70.6712 9.21418 71.5229 8.40851 72.5763 7.86383C73.6521 7.29645 74.8848 7.01277 76.2744 7.01277ZM75.4676 22.0596C76.521 22.0596 77.4623 21.8099 78.2916 21.3106C79.1209 20.8113 79.7597 20.1078 80.2079 19.2C80.6786 18.2922 80.9139 17.2709 80.9139 16.1362C80.9139 15.0241 80.6786 14.0255 80.2079 13.1404C79.7597 12.2553 79.1209 11.5631 78.2916 11.0638C77.4623 10.5418 76.521 10.2809 75.4676 10.2809C74.4142 10.2809 73.4728 10.5305 72.6435 11.0298C71.8143 11.5291 71.1643 12.2326 70.6936 13.1404C70.2454 14.0255 70.0212 15.0241 70.0212 16.1362C70.0212 17.8837 70.5255 19.3135 71.5341 20.4255C72.5651 21.5149 73.8763 22.0596 75.4676 22.0596Z" fill="#05060F"/>
    <path d="M104 7.14894V23.3191C104 25.0667 103.63 26.5872 102.891 27.8809C102.173 29.1972 101.142 30.2071 99.7976 30.9106C98.4752 31.6369 96.9175 32 95.1245 32C93.7797 32 92.4013 31.7504 90.9893 31.2511C89.5997 30.7518 88.423 30.0936 87.4592 29.2766L88.5014 26.417C89.3307 27.0752 90.2945 27.6199 91.3927 28.0511C92.5134 28.4823 93.6004 28.7092 94.6538 28.7319C96.3572 28.7319 97.702 28.244 98.6881 27.2681C99.6743 26.2922 100.167 24.9532 100.167 23.2511V20.6298C99.0019 22.695 97.0184 23.739 94.2167 23.7617C91.9754 23.7617 90.1936 23.1376 88.8712 21.8894C87.5713 20.6184 86.9213 18.905 86.9213 16.7489V7.14894H90.7876V15.6255C90.7876 17.0099 91.1686 18.0993 91.9306 18.8936C92.6927 19.6652 93.7461 20.0511 95.0908 20.0511C96.6822 20.0284 97.9261 19.495 98.8226 18.4511C99.7191 17.3844 100.167 15.9319 100.167 14.0936V7.14894H104Z" fill="#05060F"/>
</svg>
