<svg width="473" height="278" viewBox="0 0 473 278" fill="none" xmlns="http://www.w3.org/2000/svg">
    <g opacity="0.8">
        <path d="M119.88 277.922C98.52 277.922 80.28 274.562 65.16 267.842C50.04 260.882 37.68 251.522 28.08 239.762C18.48 227.762 11.4 214.081 6.84 198.721C2.28 183.121 0 166.801 0 149.761V128.881C0 104.881 4.32 83.1606 12.96 63.7204C21.6 44.2803 34.8 28.8002 52.56 17.2801C70.32 5.76004 92.76 0 119.88 0C147 0 169.32 5.76004 186.84 17.2801C204.6 28.8002 217.8 44.2803 226.44 63.7204C235.08 83.1606 239.4 104.881 239.4 128.881V149.761C239.4 166.801 237.12 183.121 232.56 198.721C228 214.081 220.92 227.762 211.32 239.762C201.96 251.522 189.72 260.882 174.6 267.842C159.48 274.562 141.24 277.922 119.88 277.922ZM119.88 216.001C137.64 216.001 150.84 209.761 159.48 197.281C168.12 184.801 172.44 165.601 172.44 139.681C172.44 112.081 168 92.2806 159.12 80.2805C150.24 68.0405 137.16 61.9204 119.88 61.9204C102.36 61.9204 89.16 68.0405 80.28 80.2805C71.4 92.2806 66.96 111.841 66.96 138.961C66.96 165.121 71.28 184.561 79.92 197.281C88.8 209.761 102.12 216.001 119.88 216.001Z" fill="#F3F3F3"/>
        <path d="M277.4 270.722V213.121C277.4 201.601 279.32 191.521 283.16 182.881C287.24 174.001 293.48 166.201 301.88 159.481C310.52 152.761 321.68 146.521 335.36 140.761L375.32 123.841C385.64 119.521 393.08 114.361 397.64 108.361C402.44 102.361 404.84 94.8006 404.84 85.6806C404.84 77.2805 401.96 70.2005 396.2 64.4404C390.68 58.4404 382.52 55.4404 371.72 55.4404C360.68 55.4404 352.4 58.5604 346.88 64.8004C341.36 70.8005 338.6 78.9605 338.6 89.2806H273.8C273.8 72.0005 277.52 56.6404 284.96 43.2003C292.4 29.7602 303.32 19.2001 317.72 11.5201C332.36 3.84003 350.36 0 371.72 0C392.84 0 410.6 3.72003 425 11.1601C439.64 18.3601 450.68 28.3202 458.12 41.0403C465.8 53.5204 469.64 67.6805 469.64 83.5206V87.8406C469.64 108.241 464.12 125.041 453.08 138.241C442.04 151.441 424.28 163.321 399.8 173.881L359.84 190.801C354.08 193.201 349.76 195.841 346.88 198.721C344.24 201.601 342.92 205.441 342.92 210.241V223.202L327.44 213.121H468.92V270.722H277.4Z" fill="#F3F3F3"/>
    </g>
</svg>
