<svg width="473" height="278" viewBox="0 0 473 278" fill="none" xmlns="http://www.w3.org/2000/svg">
    <g opacity="0.8">
        <path d="M119.88 277.921C98.52 277.921 80.28 274.561 65.16 267.841C50.04 260.881 37.68 251.521 28.08 239.761C18.48 227.761 11.4 214.081 6.84 198.721C2.28 183.121 0 166.801 0 149.761V128.881C0 104.88 4.32 83.1604 12.96 63.7203C21.6 44.2802 34.8 28.8001 52.56 17.2801C70.32 5.76003 92.76 0 119.88 0C147 0 169.32 5.76003 186.84 17.2801C204.6 28.8001 217.8 44.2802 226.44 63.7203C235.08 83.1604 239.4 104.88 239.4 128.881V149.761C239.4 166.801 237.12 183.121 232.56 198.721C228 214.081 220.92 227.761 211.32 239.761C201.96 251.521 189.72 260.881 174.6 267.841C159.48 274.561 141.24 277.921 119.88 277.921ZM119.88 216.001C137.64 216.001 150.84 209.761 159.48 197.281C168.12 184.801 172.44 165.601 172.44 139.681C172.44 112.081 168 92.2804 159.12 80.2804C150.24 68.0403 137.16 61.9203 119.88 61.9203C102.36 61.9203 89.16 68.0403 80.28 80.2804C71.4 92.2804 66.96 111.841 66.96 138.961C66.96 165.121 71.28 184.561 79.92 197.281C88.8 209.761 102.12 216.001 119.88 216.001Z" fill="#F3F3F3"/>
        <path d="M370.64 277.921C350 277.921 332 274.201 316.64 266.761C301.28 259.081 289.4 248.761 281 235.801C272.84 222.601 268.76 207.601 268.76 190.801H333.56C333.56 200.161 336.8 207.841 343.28 213.841C349.76 219.601 358.88 222.481 370.64 222.481C378.56 222.481 385.28 221.041 390.8 218.161C396.32 215.041 400.52 210.961 403.4 205.921C406.28 200.641 407.72 194.761 407.72 188.281C407.72 178.441 404.48 170.281 398 163.801C391.76 157.321 382.64 154.081 370.64 154.081C363.68 154.081 357.44 155.161 351.92 157.321C346.64 159.481 342.08 162.241 338.24 165.601L308.36 115.921L381.08 71.2803L377.84 65.5203H279.92V7.92004H462.8V65.1603L368.12 122.761L337.88 111.601C342.92 110.16 348.2 109.08 353.72 108.36C359.48 107.64 365.36 107.28 371.36 107.28C392 107.28 409.88 110.521 425 117.001C440.12 123.481 451.76 132.841 459.92 145.081C468.32 157.081 472.52 171.481 472.52 188.281V192.601C472.52 209.161 468.32 223.921 459.92 236.881C451.76 249.601 440 259.681 424.64 267.121C409.52 274.321 391.52 277.921 370.64 277.921Z" fill="#F3F3F3"/>
    </g>
</svg>
