<svg width="80" height="80" viewBox="0 0 80 80" fill="none" xmlns="http://www.w3.org/2000/svg">
    <rect width="80" height="80" rx="40" fill="#7657FF"/>
    <path fill-rule="evenodd" clip-rule="evenodd" d="M46.4874 37.0126C47.1709 37.696 47.1709 38.804 46.4874 39.4874L39.4874 46.4874C38.804 47.1709 37.696 47.1709 37.0126 46.4874L33.5126 42.9874C32.8291 42.304 32.8291 41.196 33.5126 40.5126C34.196 39.8291 35.304 39.8291 35.9874 40.5126L38.25 42.7751L44.0126 37.0126C44.696 36.3291 45.804 36.3291 46.4874 37.0126Z" fill="white"/>
    <path fill-rule="evenodd" clip-rule="evenodd" d="M29.5 54H50.5L50.5 32.6997L43.8003 26H29.5V54ZM29.5 22.5C27.567 22.5 26 24.067 26 26V54C26 55.933 27.567 57.5 29.5 57.5H50.5C52.433 57.5 54 55.933 54 54V32.6997C54 31.7715 53.6313 30.8813 52.9749 30.2249L46.2751 23.5251C45.6187 22.8687 44.7285 22.5 43.8003 22.5H29.5Z" fill="white"/>
</svg>
