<svg width="80" height="80" viewBox="0 0 80 80" fill="none" xmlns="http://www.w3.org/2000/svg">
    <rect width="80" height="80" rx="40" fill="#7657FF"/>
    <path fill-rule="evenodd" clip-rule="evenodd" d="M29.5 54H50.5L50.5 32.6997L43.8003 26H29.5V54ZM29.5 22.5C27.567 22.5 26 24.067 26 26V54C26 55.933 27.567 57.5 29.5 57.5H50.5C52.433 57.5 54 55.933 54 54V32.6997C54 31.7715 53.6313 30.8813 52.9749 30.2249L46.2751 23.5251C45.6187 22.8687 44.7285 22.5 43.8003 22.5H29.5Z" fill="white"/>
    <path d="M33 48.75C33 47.7835 33.7835 47 34.75 47H45.25C46.2165 47 47 47.7835 47 48.75C47 49.7165 46.2165 50.5 45.25 50.5H34.75C33.7835 50.5 33 49.7165 33 48.75Z" fill="white"/>
    <path d="M33 41.75C33 40.7835 33.7835 40 34.75 40H41.75C42.7165 40 43.5 40.7835 43.5 41.75C43.5 42.7165 42.7165 43.5 41.75 43.5H34.75C33.7835 43.5 33 42.7165 33 41.75Z" fill="white"/>
    <path d="M33 34.75C33 33.7835 33.7835 33 34.75 33H38.25C39.2165 33 40 33.7835 40 34.75C40 35.7165 39.2165 36.5 38.25 36.5H34.75C33.7835 36.5 33 35.7165 33 34.75Z" fill="white"/>
</svg>
