<svg width="80" height="80" viewBox="0 0 80 80" fill="none" xmlns="http://www.w3.org/2000/svg">
    <rect width="80" height="80" rx="40" fill="#7657FF"/>
    <path d="M47.5126 35.2626L41.75 41.0251L41.75 24.25C41.75 23.2835 40.9665 22.5 40 22.5C39.0335 22.5 38.25 23.2835 38.25 24.25L38.25 41.0251L32.4874 35.2626C31.804 34.5791 30.696 34.5791 30.0126 35.2626C29.3291 35.946 29.3291 37.054 30.0126 37.7374L38.7626 46.4874C39.446 47.1709 40.554 47.1709 41.2374 46.4874L49.9874 37.7374C50.6709 37.054 50.6709 35.946 49.9874 35.2626C49.304 34.5791 48.196 34.5791 47.5126 35.2626Z" fill="white"/>
    <path d="M29.5 47C29.5 46.0335 28.7165 45.25 27.75 45.25C26.7835 45.25 26 46.0335 26 47V52.25C26 55.1495 28.3505 57.5 31.25 57.5H48.75C51.6495 57.5 54 55.1495 54 52.25V47C54 46.0335 53.2165 45.25 52.25 45.25C51.2835 45.25 50.5 46.0335 50.5 47V52.25C50.5 53.2165 49.7165 54 48.75 54H31.25C30.2835 54 29.5 53.2165 29.5 52.25V47Z" fill="white"/>
</svg>
