<svg width="44" height="44" viewBox="0 0 44 44" fill="none" xmlns="http://www.w3.org/2000/svg">
    <rect width="44" height="44" rx="22" fill="white" fill-opacity="0.8"/>
    <path d="M23.6481 13.7504L20.0575 17.3411L18.4075 15.6912L21.9982 12.1005C24.7319 9.36681 29.164 9.36681 31.8977 12.1005C34.6314 14.8342 34.6314 19.2663 31.8977 22L28.307 25.5907L26.6571 23.9407L30.2478 20.3501C32.0702 18.5276 32.0702 15.5728 30.2478 13.7504C28.4253 11.928 25.4706 11.928 23.6481 13.7504Z" fill="#05060F" fill-opacity="0.8"/>
    <path d="M15.1077 18.991L16.7576 20.6409L13.7486 23.6499C11.9262 25.4723 11.9262 28.4271 13.7486 30.2496C15.5711 32.072 18.5258 32.072 20.3483 30.2496L23.3573 27.2406L25.0072 28.8905L21.9982 31.8995C19.2645 34.6331 14.8324 34.6331 12.0987 31.8995C9.36504 29.1658 9.36504 24.7337 12.0987 22L15.1077 18.991Z" fill="#05060F" fill-opacity="0.8"/>
    <path d="M17.0508 25.3C16.5952 25.7556 16.5952 26.4943 17.0508 26.9499C17.5064 27.4055 18.2451 27.4055 18.7007 26.9499L26.9503 18.7003C27.4059 18.2447 27.4059 17.506 26.9503 17.0504C26.4947 16.5948 25.756 16.5948 25.3004 17.0504L17.0508 25.3Z" fill="#05060F" fill-opacity="0.8"/>
</svg>
