<svg width="160" height="32" viewBox="0 0 160 32" fill="none" xmlns="http://www.w3.org/2000/svg">
    <path fill-rule="evenodd" clip-rule="evenodd" d="M17.2694 4.65465C16.8703 3.42623 15.1324 3.42623 14.7333 4.65465L12.7085 10.8863C12.53 11.4357 12.018 11.8076 11.4404 11.8076H4.88801C3.59638 11.8076 3.05935 13.4605 4.1043 14.2197L9.40528 18.0711C9.8726 18.4106 10.0681 19.0124 9.88965 19.5618L7.86485 25.7934C7.46571 27.0219 8.87169 28.0434 9.91664 27.2842L15.2176 23.4328C15.6849 23.0932 16.3177 23.0932 16.7851 23.4328L22.086 27.2842C23.131 28.0434 24.537 27.0219 24.1378 25.7934L22.113 19.5618C21.9345 19.0124 22.1301 18.4106 22.5974 18.0711L27.8984 14.2197C28.9433 13.4605 28.4063 11.8076 27.1147 11.8076H20.5623C19.9846 11.8076 19.4727 11.4357 19.2942 10.8863L17.2694 4.65465Z" fill="#F5C418"/>
    <path fill-rule="evenodd" clip-rule="evenodd" d="M49.2694 4.65465C48.8703 3.42623 47.1324 3.42623 46.7333 4.65465L44.7085 10.8863C44.53 11.4357 44.018 11.8076 43.4404 11.8076H36.888C35.5964 11.8076 35.0593 13.4605 36.1043 14.2197L41.4053 18.0711C41.8726 18.4106 42.0681 19.0124 41.8896 19.5618L39.8648 25.7934C39.4657 27.0219 40.8717 28.0434 41.9166 27.2842L47.2176 23.4328C47.6849 23.0932 48.3177 23.0932 48.7851 23.4328L54.086 27.2842C55.131 28.0434 56.537 27.0219 56.1378 25.7934L54.113 19.5618C53.9345 19.0124 54.1301 18.4106 54.5974 18.0711L59.8984 14.2197C60.9433 13.4605 60.4063 11.8076 59.1147 11.8076H52.5623C51.9846 11.8076 51.4727 11.4357 51.2942 10.8863L49.2694 4.65465Z" fill="#F5C418"/>
    <path fill-rule="evenodd" clip-rule="evenodd" d="M81.2694 4.65465C80.8703 3.42623 79.1324 3.42623 78.7333 4.65465L76.7085 10.8863C76.53 11.4357 76.018 11.8076 75.4404 11.8076H68.888C67.5964 11.8076 67.0593 13.4605 68.1043 14.2197L73.4053 18.0711C73.8726 18.4106 74.0681 19.0124 73.8896 19.5618L71.8648 25.7934C71.4657 27.0219 72.8717 28.0434 73.9166 27.2842L79.2176 23.4328C79.6849 23.0932 80.3177 23.0932 80.7851 23.4328L86.086 27.2842C87.131 28.0434 88.537 27.0219 88.1378 25.7934L86.113 19.5618C85.9345 19.0124 86.1301 18.4106 86.5974 18.0711L91.8984 14.2197C92.9433 13.4605 92.4063 11.8076 91.1147 11.8076H84.5623C83.9846 11.8076 83.4727 11.4357 83.2942 10.8863L81.2694 4.65465Z" fill="#F5C418"/>
    <path fill-rule="evenodd" clip-rule="evenodd" d="M113.269 4.65465C112.87 3.42623 111.132 3.42623 110.733 4.65465L108.708 10.8863C108.53 11.4357 108.018 11.8076 107.44 11.8076H100.888C99.5964 11.8076 99.0593 13.4605 100.104 14.2197L105.405 18.0711C105.873 18.4106 106.068 19.0124 105.89 19.5618L103.865 25.7934C103.466 27.0219 104.872 28.0434 105.917 27.2842L111.218 23.4328C111.685 23.0932 112.318 23.0932 112.785 23.4328L118.086 27.2842C119.131 28.0434 120.537 27.0219 120.138 25.7934L118.113 19.5618C117.935 19.0124 118.13 18.4106 118.597 18.0711L123.898 14.2197C124.943 13.4605 124.406 11.8076 123.115 11.8076H116.562C115.985 11.8076 115.473 11.4357 115.294 10.8863L113.269 4.65465Z" fill="#F5C418"/>
    <path fill-rule="evenodd" clip-rule="evenodd" d="M145.269 4.65465C144.87 3.42623 143.132 3.42623 142.733 4.65465L140.708 10.8863C140.53 11.4357 140.018 11.8076 139.44 11.8076H132.888C131.596 11.8076 131.059 13.4605 132.104 14.2197L137.405 18.0711C137.873 18.4106 138.068 19.0124 137.89 19.5618L135.865 25.7934C135.466 27.0219 136.872 28.0434 137.917 27.2842L143.218 23.4328C143.685 23.0932 144.318 23.0932 144.785 23.4328L150.086 27.2842C151.131 28.0434 152.537 27.0219 152.138 25.7934L150.113 19.5618C149.935 19.0124 150.13 18.4106 150.597 18.0711L155.898 14.2197C156.943 13.4605 156.406 11.8076 155.115 11.8076H148.562C147.985 11.8076 147.473 11.4357 147.294 10.8863L145.269 4.65465Z" fill="#F5C418"/>
</svg>
