<svg width="473" height="278" viewBox="0 0 473 278" fill="none" xmlns="http://www.w3.org/2000/svg">
    <g opacity="0.8">
        <path d="M119.668 278C98.3459 278 80.1382 274.639 65.0449 267.917C49.9516 260.955 37.6134 251.592 28.0304 239.829C18.4474 227.826 11.3799 214.142 6.82792 198.777C2.27597 183.173 0 166.848 0 149.803V128.917C0 104.91 4.31237 83.1839 12.9371 63.7383C21.5618 44.2927 34.7385 28.8083 52.4671 17.285C70.1958 5.76165 92.5961 0 119.668 0C146.74 0 169.021 5.76165 186.51 17.285C204.239 28.8083 217.415 44.2927 226.04 63.7383C234.665 83.1839 238.977 104.91 238.977 128.917V149.803C238.977 166.848 236.701 183.173 232.149 198.777C227.597 214.142 220.53 227.826 210.947 239.829C201.603 251.592 189.385 260.955 174.292 267.917C159.198 274.639 140.99 278 119.668 278ZM119.668 216.062C137.397 216.062 150.574 209.82 159.198 197.337C167.823 184.853 172.135 165.648 172.135 139.72C172.135 112.112 167.703 92.3066 158.839 80.3031C149.975 68.0596 136.918 61.9378 119.668 61.9378C102.179 61.9378 89.0025 68.0596 80.1382 80.3031C71.2738 92.3066 66.8417 111.872 66.8417 139C66.8417 165.168 71.1541 184.613 79.7788 197.337C88.6431 209.82 101.94 216.062 119.668 216.062Z" fill="#F3F3F3"/>
        <path d="M317.158 270.798V54.0155L332.97 66.2591H268.285V7.92229H384V270.798H317.158Z" fill="#F3F3F3"/>
    </g>
</svg>
