<svg width="473" height="278" viewBox="0 0 473 278" fill="none" xmlns="http://www.w3.org/2000/svg">
    <g opacity="0.8">
        <path d="M119.88 277.921C98.52 277.921 80.28 274.561 65.16 267.841C50.04 260.881 37.68 251.521 28.08 239.761C18.48 227.761 11.4 214.081 6.84 198.721C2.28 183.121 0 166.801 0 149.761V128.881C0 104.88 4.32 83.1604 12.96 63.7203C21.6 44.2802 34.8 28.8001 52.56 17.2801C70.32 5.76003 92.76 0 119.88 0C147 0 169.32 5.76003 186.84 17.2801C204.6 28.8001 217.8 44.2802 226.44 63.7203C235.08 83.1604 239.4 104.88 239.4 128.881V149.761C239.4 166.801 237.12 183.121 232.56 198.721C228 214.081 220.92 227.761 211.32 239.761C201.96 251.521 189.72 260.881 174.6 267.841C159.48 274.561 141.24 277.921 119.88 277.921ZM119.88 216.001C137.64 216.001 150.84 209.761 159.48 197.281C168.12 184.801 172.44 165.601 172.44 139.681C172.44 112.081 168 92.2804 159.12 80.2804C150.24 68.0403 137.16 61.9203 119.88 61.9203C102.36 61.9203 89.16 68.0403 80.28 80.2804C71.4 92.2804 66.96 111.841 66.96 138.961C66.96 165.121 71.28 184.561 79.92 197.281C88.8 209.761 102.12 216.001 119.88 216.001Z" fill="#F3F3F3"/>
        <path d="M268.04 224.281V156.241L364.52 0L417.44 33.4801L337.88 163.081L343.28 171.001H496.28V224.281H268.04ZM405.92 270.721V80.2804H467.84V270.721H405.92Z" fill="#F3F3F3"/>
    </g>
</svg>
