<svg width="100" height="101" viewBox="0 0 100 101" fill="none" xmlns="http://www.w3.org/2000/svg">
    <rect y="0.5" width="100" height="100" rx="24" fill="white"/>
    <path fill-rule="evenodd" clip-rule="evenodd" d="M50 69.1666C60.3093 69.1666 68.6666 60.8093 68.6666 50.5C68.6666 40.1906 60.3093 31.8333 50 31.8333C39.6906 31.8333 31.3333 40.1906 31.3333 50.5C31.3333 60.8093 39.6906 69.1666 50 69.1666ZM50 73.8333C62.8866 73.8333 73.3333 63.3866 73.3333 50.5C73.3333 37.6133 62.8866 27.1666 50 27.1666C37.1133 27.1666 26.6666 37.6133 26.6666 50.5C26.6666 63.3866 37.1133 73.8333 50 73.8333Z" fill="#05060F"/>
    <path d="M50 38.8333C48.7113 38.8333 47.6666 39.878 47.6666 41.1666V52.8333C47.6666 54.122 48.7113 55.1666 50 55.1666H59.3333C60.622 55.1666 61.6666 54.122 61.6666 52.8333C61.6666 51.5446 60.622 50.5 59.3333 50.5H52.3333V41.1666C52.3333 39.878 51.2886 38.8333 50 38.8333Z" fill="#05060F"/>
</svg>
