<svg width="100" height="101" viewBox="0 0 100 101" fill="none" xmlns="http://www.w3.org/2000/svg">
    <rect y="0.5" width="100" height="100" rx="24" fill="white"/>
    <path fill-rule="evenodd" clip-rule="evenodd" d="M32.9065 29.891C33.561 28.7811 34.7534 28.1 36.0419 28.1H63.6214C64.9099 28.1 66.1023 28.7811 66.7568 29.891L74.3586 42.7814C75.1418 44.1093 75.0034 45.7865 74.0133 46.9682L52.6217 72.4979C51.1669 74.2342 48.4965 74.2342 47.0416 72.4979L25.65 46.9682C24.6599 45.7865 24.5216 44.1093 25.3047 42.7814L32.9065 29.891ZM35.2175 34.7914L30.6788 42.4878H38.4249L35.2175 34.7914ZM39.1494 32.58L42.0571 39.5573L46.0932 32.58H39.1494ZM53.5567 32.58L57.7086 39.8097L60.7286 32.58H53.5567ZM64.5712 35.0041L61.4451 42.4878H68.9845L64.5712 35.0041ZM54.0804 42.4878L49.8244 35.0769L45.5375 42.4878H54.0804ZM44.8603 46.9678H54.962L49.8551 62.2754L44.8603 46.9678ZM40.1479 46.9678H31.4945L45.6667 63.8815L40.1479 46.9678ZM54.0719 63.7917L59.6847 46.9678H68.1688L54.0719 63.7917Z" fill="#F5C418"/>
</svg>
