<svg width="100" height="101" viewBox="0 0 100 101" fill="none" xmlns="http://www.w3.org/2000/svg">
    <rect y="0.5" width="100" height="100" rx="24" fill="white"/>
    <path fill-rule="evenodd" clip-rule="evenodd" d="M61.9845 41.5481C62.6868 42.2838 62.6597 43.4496 61.924 44.1519L48.0217 57.5124C47.6627 57.8551 47.1807 58.0383 46.6848 58.0208C46.1889 58.0032 45.7211 57.7863 45.3873 57.4191L38.595 50.0857C37.9109 49.3331 37.9663 48.1683 38.7189 47.4841C39.4715 46.8 40.6363 46.8554 41.3205 47.608L46.8434 53.5451L59.3807 41.4875C60.1165 40.7852 61.2822 40.8123 61.9845 41.5481Z" fill="#7657FF"/>
    <path d="M28.9167 32.1842C28.9167 30.5025 30.0363 29.0265 31.6556 28.5731L48.9889 23.7197C49.6502 23.5346 50.3498 23.5346 51.0111 23.7197L68.3444 28.5731C69.9638 29.0265 71.0833 30.5024 71.0833 32.1839V32.2004V32.217V32.2335V32.2501V32.2668V32.2835V32.3002V32.3169V32.3337V32.3506V32.3674V32.3843V32.4013V32.4183V32.4353V32.4524V32.4694V32.4866V32.5038V32.521V32.5382V32.5555V32.5728V32.5902V32.6076V32.625V32.6425V32.66V32.6775V32.6951V32.7128V32.7304V32.7481V32.7659V32.7836V32.8015V32.8193V32.8372V32.8551V32.8731V32.8911V32.9092V32.9273V32.9454V32.9635V32.9817V33V33.0183V33.0366V33.0549V33.0733V33.0918V33.1103V33.1288V33.1473V33.1659V33.1846V33.2032V33.2219V33.2407V33.2595V33.2783V33.2972V33.3161V33.335V33.354V33.373V33.3921V33.4112V33.4303V33.4495V33.4687V33.488V33.5073V33.5267V33.546V33.5655V33.5849V33.6044V33.624V33.6435V33.6632V33.6828V33.7025V33.7223V33.7421V33.7619V33.7817V33.8016V33.8216V33.8416V33.8616V33.8817V33.9018V33.9219V33.9421V33.9623V33.9826V34.0029V34.0233V34.0436V34.0641V34.0845V34.1051V34.1256V34.1462V34.1668V34.1875V34.2082V34.229V34.2498V34.2706V34.2915V34.3124V34.3334V34.3544V34.3755V34.3965V34.4177V34.4388V34.4601V34.4813V34.5026V34.5239V34.5453V34.5667V34.5882V34.6097V34.6313V34.6528V34.6745V34.6961V34.7179V34.7396V34.7614V34.7832V34.8051V34.827V34.849V34.871V34.8931V34.9152V34.9373V34.9595V34.9817V35.004V35.0263V35.0486V35.071V35.0934V35.1159V35.1384V35.161V35.1836V35.2062V35.2289V35.2516V35.2744V35.2972V35.3201V35.343V35.3659V35.3889V35.4119V35.435V35.4581V35.4813V35.5045V35.5277V35.551V35.5744V35.5977V35.6212V35.6446V35.6681V35.6917V35.7153V35.7389V35.7626V35.7863V35.8101V35.8339V35.8578V35.8817V35.9056V35.9296V35.9536V35.9777V36.0018V36.026V36.0502V36.0744V36.0987V36.1231V36.1474V36.1719V36.1963V36.2209V36.2454V36.27V36.2947V36.3194V36.3441V36.3689V36.3937V36.4186V36.4435V36.4685V36.4935V36.5185V36.5436V36.5688V36.5939V36.6192V36.6444V36.6698V36.6951V36.7205V36.746V36.7715V36.797V36.8226V36.8483V36.8739V36.8997V36.9254V36.9513V36.9771V37.003V37.029V37.055V37.081V37.1071V37.1332V37.1594V37.1857V37.2119V37.2382V37.2646V37.291V37.3175V37.344V37.3705V37.3971V37.4238V37.4504V37.4772V37.504V37.5308V37.5576V37.5846V37.6115V37.6385V37.6656V37.6927V37.7198V37.747V37.7743V37.8016V37.8289V37.8563V37.8837V37.9112V37.9387V37.9663V37.9939V38.0215V38.0492V38.077V38.1048V38.1326V38.1605V38.1885V38.2165V38.2445V38.2726V38.3007V38.3289V38.3571V38.3854V38.4137V38.4421V38.4705V38.499V38.5275V38.556V38.5846V38.6133V38.642V38.6707V38.6995V38.7284V38.7573V38.7862V38.8152V38.8442V38.8733V38.9024V38.9316V38.9608V38.9901V39.0194V39.0488V39.0782V39.1077V39.1372V39.1668V39.1964V39.226V39.2557V39.2855V39.3153V39.3452V39.3751V39.405V39.435V39.4651V39.4952V39.5253V39.5555V39.5857V39.616V39.6464V39.6768V39.7072V39.7377V39.7682V39.7988V39.8295V39.8601V39.8909V39.9217V39.9525V39.9834V40.0143V40.0453V40.0763V40.1074V40.1385V40.1697V40.2009V40.2322V40.2635V40.2949V40.3263V40.3578V40.3893V40.4209V40.4525V40.4842V40.5159V40.5477V40.5795V40.6114V40.6433V40.6753V40.7073V40.7394V40.7715V40.8037V40.8359V40.8682V40.9005V40.9329V40.9653V40.9978V41.0303V41.0629V41.0955V41.1282V41.1609V41.1937V41.2265V41.2594V41.2923V41.3253V41.3584V41.3915V41.4246V41.4578V41.491V41.5243V41.5576V41.591V41.6245V41.658V41.6915V41.7251V41.7588V41.7924V41.8262V41.86V41.8939V41.9278V41.9617V41.9957V42.0298V42.0639V42.098V42.1323V42.1665V42.2008V42.2352V42.2696V42.3041V42.3386V42.3732V42.4078V42.4425V42.4772V42.512V42.5469V42.5818V42.6167V42.6517V42.6867V42.7218V42.757V42.7922V42.8274V42.8627V42.8981V42.9335V42.969V43.0045V43.0401V43.0757V43.1114V43.1471V43.1829V43.2187V43.2546V43.2905V43.3265V43.3626V43.3987V43.4348V43.471V43.5073V43.5436V43.58V43.6164V43.6528V43.6894V43.726V43.7626V43.7993V43.836V43.8728V43.9096V43.9465V43.9835V44.0205V44.0575V44.0947V44.1318V44.169V44.2063V44.2436V44.281V44.3185V44.356V44.3935V44.4311V44.4687V44.5065V44.5442V44.582V44.6199V44.6578V44.6958V44.7338V44.7719V44.81V44.8482V44.8865V44.9248V44.9631V45.0016V45.04V45.0785V45.1171V45.1558V45.1944V45.2332V45.272V45.3108V45.3497V45.3887V45.4277V45.4668V45.5059V45.5451V45.5843V45.6236V45.6629V45.7023V45.7418V45.7813V45.8209V45.8605V45.9002V45.9399V45.9797V46.0195V46.0594V46.0994V46.1394V46.1795V46.2196V46.2598V46.3C71.0833 53.1195 69.2508 58.5768 65.9989 63.2892C62.7161 68.0464 57.9175 72.1441 51.837 76.0957C50.716 76.8242 49.272 76.8258 48.1543 76.1023C36.204 68.3675 28.9167 59.7059 28.9167 46.3V32.1842Z" stroke="#7657FF" stroke-width="4.5"/>
</svg>
