<svg width="80" height="80" viewBox="0 0 80 80" fill="none" xmlns="http://www.w3.org/2000/svg">
    <rect width="80" height="80" rx="40" fill="#7657FF"/>
    <path fill-rule="evenodd" clip-rule="evenodd" d="M26.848 26.5074C26.3472 27.0087 25.888 27.6237 25.5911 28.1592C25.2182 28.8137 24.943 29.5314 24.777 30.2775L24.6906 30.7284C23.3296 37.6339 25.0581 43.8112 30.7643 49.4768C34.5082 53.194 37.3472 54.7216 41.2345 55.2792C41.8644 55.3696 42.5224 55.4375 43.3052 55.4954L44.9149 55.5933C45.8131 55.6397 47.3098 55.7143 47.8207 55.7434C48.4935 55.7817 49.3839 55.653 50.5803 55.3727L50.7616 55.3196C51.8061 54.9506 52.7597 54.3521 53.5583 53.5526C56.4806 50.6272 56.4806 45.8841 53.5583 42.9586L53.298 42.71C50.473 40.1377 46.1533 40.1142 43.3019 42.6521L42.9639 42.9581L41.1573 44.7667C40.7614 45.163 40.138 45.2167 39.6802 44.8939C38.728 44.2223 36.198 41.7461 35.5804 40.9022C35.2447 40.4434 35.2934 39.808 35.6952 39.406L37.2869 37.8135L37.4231 37.7027L37.6252 37.5154C37.6617 37.4803 37.6988 37.4438 37.7356 37.407C40.7422 34.3971 40.7422 29.5172 37.7356 26.5074C34.7291 23.4975 29.8545 23.4975 26.848 26.5074ZM29.2901 28.9521C30.9479 27.2925 33.6357 27.2925 35.2935 28.9521C36.9514 30.6118 36.9514 33.3026 35.2935 34.9622C35.191 35.0649 35.0841 35.1616 34.9733 35.2523L33.2537 36.9606C31.6465 38.569 31.4515 41.1104 32.7944 42.9455C33.6349 44.0939 36.4345 46.8341 37.6912 47.7204L37.9337 47.8803C39.7373 48.9904 42.0845 48.7279 43.5993 47.2115L45.2696 45.5388L45.2924 45.5273L45.4534 45.3698C47.0296 43.8271 49.5553 43.8408 51.1162 45.4034C52.6897 46.9786 52.6897 49.5326 51.1162 51.1079L50.8478 51.3538C50.5703 51.5863 50.2664 51.7777 49.9425 51.9258L49.6812 52.0309L49.2373 52.1287L48.7684 52.2165C48.4157 52.2756 48.1602 52.2997 48.017 52.2915L44.5103 52.1094L43.5812 52.049L42.7754 51.9812C42.3977 51.9447 42.0536 51.904 41.7244 51.8568C38.6124 51.4103 36.4376 50.2402 33.1963 47.0219C28.4865 42.3457 27.0267 37.5085 27.989 31.8847L28.0896 31.3379C28.1809 30.778 28.3498 30.2955 28.6011 29.8544C28.754 29.5787 29.02 29.2225 29.2901 28.9521Z" fill="white"/>
</svg>
