<svg width="24" height="24" viewBox="0 0 24 24" fill="none" xmlns="http://www.w3.org/2000/svg">
    <path d="M21.4333 7.36663C21.4926 7.31735 21.537 7.25257 21.5617 7.17952C21.5864 7.10647 21.5903 7.028 21.573 6.95285C21.5557 6.87771 21.5179 6.80883 21.4638 6.75388C21.4097 6.69894 21.3415 6.66008 21.2666 6.64163L20.6083 6.47497C20.5484 6.45998 20.4926 6.43189 20.4449 6.39271C20.3973 6.35354 20.3589 6.30427 20.3326 6.24845C20.3063 6.19263 20.2927 6.13167 20.2928 6.06996C20.2929 6.00826 20.3067 5.94735 20.3333 5.89163L20.6999 5.14997C20.7346 5.0781 20.7478 4.9978 20.7382 4.9186C20.7285 4.83941 20.6963 4.76466 20.6454 4.70322C20.5945 4.64179 20.5271 4.59626 20.451 4.57205C20.375 4.54784 20.2937 4.54596 20.2166 4.56663L18.5499 5.0333C18.4878 5.05141 18.4224 5.05482 18.3587 5.04325C18.2951 5.03168 18.235 5.00545 18.1833 4.96663C17.462 4.42571 16.5848 4.1333 15.6833 4.1333C14.5782 4.1333 13.5184 4.57229 12.737 5.35369C11.9556 6.13509 11.5166 7.1949 11.5166 8.29997V8.59997C11.517 8.65115 11.4985 8.70068 11.4647 8.7391C11.4309 8.77753 11.3841 8.80216 11.3333 8.8083C8.9916 9.0833 6.74993 7.89163 4.33327 5.1083C4.28077 5.0504 4.21332 5.0081 4.13834 4.98605C4.06336 4.96399 3.98375 4.96304 3.90827 4.9833C3.84026 5.01456 3.78193 5.06355 3.73941 5.12514C3.69689 5.18673 3.67173 5.25863 3.6666 5.3333C3.33281 6.70442 3.46777 8.14782 4.04993 9.4333C4.06716 9.4674 4.07468 9.50557 4.07167 9.54365C4.06866 9.58173 4.05524 9.61825 4.03287 9.64922C4.01051 9.68019 3.98006 9.70441 3.94485 9.71924C3.90965 9.73407 3.87105 9.73893 3.83327 9.7333L2.89993 9.54997C2.83365 9.53931 2.76578 9.54483 2.70208 9.56605C2.63839 9.58727 2.58077 9.62356 2.53413 9.67185C2.48748 9.72013 2.4532 9.77896 2.43418 9.84335C2.41517 9.90773 2.412 9.97576 2.42493 10.0416C2.49688 10.6812 2.71174 11.2963 3.05362 11.8416C3.39549 12.3869 3.85561 12.8483 4.39993 13.1916C4.43516 13.2087 4.46486 13.2353 4.48565 13.2685C4.50643 13.3017 4.51746 13.34 4.51746 13.3791C4.51746 13.4183 4.50643 13.4566 4.48565 13.4898C4.46486 13.5229 4.43516 13.5496 4.39993 13.5666L3.95827 13.7416C3.90463 13.7631 3.85605 13.7956 3.81562 13.8368C3.77519 13.8781 3.74378 13.9274 3.72341 13.9815C3.70303 14.0355 3.69413 14.0933 3.69726 14.151C3.70039 14.2087 3.71549 14.2651 3.7416 14.3166C3.98584 14.8511 4.35606 15.3183 4.82051 15.6782C5.28497 16.0382 5.82979 16.2801 6.40827 16.3833C6.44848 16.3979 6.48323 16.4245 6.50779 16.4596C6.53235 16.4946 6.54552 16.5363 6.54552 16.5791C6.54552 16.6219 6.53235 16.6637 6.50779 16.6987C6.48323 16.7337 6.44848 16.7604 6.40827 16.775C5.27523 17.2436 4.05932 17.4788 2.83327 17.4666C2.72276 17.4445 2.608 17.4672 2.51423 17.5297C2.42046 17.5923 2.35537 17.6895 2.33327 17.8C2.31116 17.9105 2.33387 18.0252 2.39638 18.119C2.45889 18.2128 2.55609 18.2779 2.6666 18.3C4.78955 19.3068 7.10092 19.8549 9.44993 19.9083C11.5161 19.9398 13.5456 19.36 15.2833 18.2416C16.7126 17.2875 17.8837 15.9945 18.6921 14.478C19.5005 12.9615 19.9212 11.2685 19.9166 9.54997V8.82497C19.9171 8.76446 19.9308 8.70479 19.9567 8.6501C19.9826 8.59541 20.0201 8.54703 20.0666 8.5083L21.4333 7.36663Z" fill="#05060F"/>
</svg>
